HIERARCHY
ROOT Hips
{
	OFFSET 0.00000 0.00000 0.00000
	CHANNELS 6 Xposition Yposition Zposition Zrotation Yrotation Xrotation 
	JOINT LHipJoint
	{
		OFFSET 0 0 0
		CHANNELS 3 Zrotation Yrotation Xrotation
		JOINT LeftUpLeg
		{
			OFFSET 1.56741 -1.82513 0.67319
			CHANNELS 3 Zrotation Yrotation Xrotation
			JOINT LeftLeg
			{
				OFFSET 2.35708 -6.47604 0.00000
				CHANNELS 3 Zrotation Yrotation Xrotation
				JOINT LeftFoot
				{
					OFFSET 2.70636 -7.43567 0.00000
					CHANNELS 3 Zrotation Yrotation Xrotation
					JOINT LeftToeBase
					{
						OFFSET 0.20427 -0.56122 2.08535
						CHANNELS 3 Zrotation Yrotation Xrotation
						End Site
						{
							OFFSET 0.00000 -0.00000 1.08535
						}
					}
				}
			}
		}
	}
	JOINT RHipJoint
	{
		OFFSET 0 0 0
		CHANNELS 3 Zrotation Yrotation Xrotation
		JOINT RightUpLeg
		{
			OFFSET -1.51422 -1.82513 0.67319
			CHANNELS 3 Zrotation Yrotation Xrotation
			JOINT RightLeg
			{
				OFFSET -2.48824 -6.83638 0.00000
				CHANNELS 3 Zrotation Yrotation Xrotation
				JOINT RightFoot
				{
					OFFSET -2.70033 -7.41909 0.00000
					CHANNELS 3 Zrotation Yrotation Xrotation
					JOINT RightToeBase
					{
						OFFSET -0.19750 -0.54263 2.22151
						CHANNELS 3 Zrotation Yrotation Xrotation
						End Site
						{
							OFFSET -0.00000 -0.00000 1.14915
						}
					}
				}
			}
		}
	}
	JOINT LowerBack
	{
		OFFSET 0 0 0
		CHANNELS 3 Zrotation Yrotation Xrotation
		JOINT Spine
		{
			OFFSET -0.01567 2.12874 -0.15842
			CHANNELS 3 Zrotation Yrotation Xrotation
			JOINT Spine1
			{
				OFFSET 0.06098 2.13326 -0.01043
				CHANNELS 3 Zrotation Yrotation Xrotation
				JOINT Neck
				{
					OFFSET 0 0 0
					CHANNELS 3 Zrotation Yrotation Xrotation
					JOINT Neck1
					{
						OFFSET -0.05040 1.78432 0.13387
						CHANNELS 3 Zrotation Yrotation Xrotation
						JOINT Head
						{
							OFFSET -0.00180 1.76880 -0.33303
							CHANNELS 3 Zrotation Yrotation Xrotation
							End Site
							{
								OFFSET 0.00734 1.81249 -0.12719
							}
						}
					}
				}
				JOINT LeftShoulder
				{
					OFFSET 0 0 0
					CHANNELS 3 Zrotation Yrotation Xrotation
					JOINT LeftArm
					{
						OFFSET 3.72199 0.94188 -0.54317
						CHANNELS 3 Zrotation Yrotation Xrotation
						JOINT LeftForeArm
						{
							OFFSET 5.14601 -0.00000 0.00000
							CHANNELS 3 Zrotation Yrotation Xrotation
							JOINT LeftHand
							{
								OFFSET 3.64452 -0.00000 -0.00000
								CHANNELS 3 Zrotation Yrotation Xrotation
								JOINT LeftFingerBase
								{
									OFFSET 0 0 0
									CHANNELS 3 Zrotation Yrotation Xrotation
									JOINT LeftHandIndex1
									{
										OFFSET 0.56228 -0.00000 0.00000
										CHANNELS 3 Zrotation Yrotation Xrotation
										End Site
										{
											OFFSET 0.45332 -0.00000 0.00000
										}
									}
								}
								JOINT LThumb
								{
									OFFSET 0 0 0
									CHANNELS 3 Zrotation Yrotation Xrotation
									End Site
									{
										OFFSET 0.46025 -0.00000 0.46025
									}
								}
							}
						}
					}
				}
				JOINT RightShoulder
				{
					OFFSET 0 0 0
					CHANNELS 3 Zrotation Yrotation Xrotation
					JOINT RightArm
					{
						OFFSET -3.30253 1.22679 -0.46941
						CHANNELS 3 Zrotation Yrotation Xrotation
						JOINT RightForeArm
						{
							OFFSET -5.33913 -0.00000 0.00000
							CHANNELS 3 Zrotation Yrotation Xrotation
							JOINT RightHand
							{
								OFFSET -3.56478 -0.00000 -0.00000
								CHANNELS 3 Zrotation Yrotation Xrotation
								JOINT RightFingerBase
								{
									OFFSET 0 0 0
									CHANNELS 3 Zrotation Yrotation Xrotation
									JOINT RightHandIndex1
									{
										OFFSET -0.85747 -0.00000 0.00000
										CHANNELS 3 Zrotation Yrotation Xrotation
										End Site
										{
											OFFSET -0.69132 -0.00000 0.00000
										}
									}
								}
								JOINT RThumb
								{
									OFFSET 0 0 0
									CHANNELS 3 Zrotation Yrotation Xrotation
									End Site
									{
										OFFSET -0.70187 -0.00000 0.70187
									}
								}
							}
						}
					}
				}
			}
		}
	}
}
MOTION
Frames: 7
Frame Time: 0.0227273
0.00 0.00 0.00 0 0 0 0 0 0 -21 0 0 0 0 0 0 0 0 0 0 0 0 0 0 21 0 0 0 0 0 0 0 0 0 0 0 0 0 0 0 0 0 0 0 0 0 0 -16 0 0 21 0 0 11 0 0 0 -8 0 0 0 0 0 0 0 0 0 0 0 0 0 0 0 0 0 0 0 0 8 0 0 0 0 0 0 0 0 0 0 0 0 0 0 0 0 0
0.00 0.00 0.00 4.5256 32.1225 12.4288 0.0000 0.0000 0.0000 6.3175 -16.5222 -51.0665 14.2354 19.1839 72.9222 -0.2039 -15.0524 -8.1399 3.7005 -11.7508 -34.8560 0.0000 0.0000 0.0000 18.9465 -7.4576 -59.2816 -18.3083 -19.9312 85.0484 -2.6832 2.3591 -30.4130 -0.0015 -0.2484 0.6825 -0.7674 1.8006 29.5180 2.6210 2.5579 7.2351 2.4610 1.3175 -8.2553 -6.2454 -6.8645 -19.3327 4.5788 -8.0784 4.2709 1.6376 -3.7830 4.7771 0.0000 -0.0000 0.0000 -83.5649 5.4757 -20.0043 33.7737 -43.9164 -13.9559 -0.0000 0.0000 -4.1903 36.0260 32.1270 21.1436 -7.1250 0.0000 -0.0000 5.9672 67.7190 3.2638 0.0000 -0.0000 0.0000 53.5405 16.1535 -15.1005 -47.3360 51.8629 -24.0624 0.0000 0.0000 28.5123 -32.3811 -7.6180 4.8055 7.1250 -0.0000 -0.0000 -4.8238 -38.9366 -0.7226
0.00 0.00 0.00 3.9111 30.0441 11.4248 0.0000 0.0000 0.0000 8.7706 -16.2791 -55.4418 16.0673 19.6251 78.4322 -0.4193 -11.8429 7.8560 2.6309 -10.0721 -29.2105 0.0000 0.0000 0.0000 20.3593 -7.1863 -56.8135 -17.3348 -19.8288 82.1860 -2.6284 4.2607 -29.6976 -0.0416 -1.3156 3.6177 -0.1998 2.0395 30.0914 2.6578 3.0209 7.1903 1.9959 1.5199 -8.5823 -5.0364 -4.1575 -20.1872 1.2053 -4.3686 5.7115 0.7427 -2.1700 5.0611 -0.0000 -0.0000 0.0000 -84.4431 5.0296 -19.2963 34.8336 -44.6929 -14.6962 -0.0000 0.0000 -6.6813 39.1254 34.0846 24.5059 -7.1250 0.0000 -0.0000 10.3254 70.8339 6.3850 -0.0000 -0.0000 0.0000 52.3011 16.7093 -14.9618 -46.6770 51.5641 -23.5451 0.0000 0.0000 29.0775 -32.5741 -7.8539 4.9894 7.1250 -0.0000 -0.0000 -4.9940 -39.2298 -0.7121
0.00 0.00 0.00 3.8266 28.1043 11.6590 0.0000 0.0000 0.0000 -7.6368 -16.8252 -66.8336 9.7033 17.2396 58.4919 -0.4923 -12.8785 8.7845 2.8370 -10.4263 -30.3686 0.0000 0.0000 0.0000 22.5694 -2.3883 -46.3965 -14.1544 -19.1602 72.6753 -2.7178 0.5373 -31.0991 -0.0601 -1.5820 4.3517 1.8576 1.1832 29.1392 4.0557 2.6555 7.1550 2.5271 1.3222 -8.1302 -2.6199 4.7367 -17.9403 -6.0865 7.8989 9.6186 -0.7084 3.2579 5.9978 0.0000 -0.0000 0.0000 -74.0891 -18.0825 3.3455 43.2908 -49.9031 -20.9229 -0.0000 -0.0000 7.4289 39.8877 33.2621 24.6263 -7.1250 0.0000 -0.0000 11.8701 70.1782 7.1757 0.0000 -0.0000 0.0000 61.4944 8.9706 -15.6879 -52.6242 54.0006 -28.2838 0.0000 0.0000 26.3197 -34.1294 -10.1641 6.8208 7.1250 -0.0000 -0.0000 -6.4025 -42.1131 -0.4581
0.00 0.00 0.00 2.8668 22.9856 12.8072 0.0000 0.0000 0.0000 -7.1941 -18.5024 -66.3577 5.2029 13.6087 41.6921 0.7863 -5.5483 19.6630 1.1138 -6.7046 -18.8432 0.0000 0.0000 0.0000 22.1804 0.3427 -46.4321 -14.8845 -19.3607 74.8884 -2.7306 1.9364 -30.7926 -0.0363 -1.2304 3.3831 1.7809 1.5412 28.3435 3.7997 2.9856 7.1142 2.1822 1.4619 -7.7895 -1.4311 6.6853 -16.5808 -8.3200 10.4305 8.5957 -1.3710 4.4424 5.6925 -0.0000 -0.0000 0.0000 -67.4340 -30.9475 4.8362 38.4137 -47.1015 -17.2680 -0.0000 -0.0000 9.3689 37.2079 30.3896 21.0114 -7.1250 0.0000 -0.0000 8.2612 66.1700 4.2318 -0.0000 -0.0000 0.0000 68.1635 5.6393 -14.1759 -53.9986 54.4862 -29.3991 0.0000 0.0000 25.2825 -35.9371 -10.4690 7.5032 7.1250 -0.0000 -0.0000 -8.0645 -42.6933 -0.4623
0.00 0.00 0.00 -0.0171 5.7351 12.0759 0.0000 0.0000 0.0000 2.1165 -16.6127 -72.6755 10.2811 17.5649 60.4237 -0.2754 -13.1739 14.8194 1.4506 -7.6131 -21.5451 0.0000 0.0000 0.0000 15.1006 5.6730 -42.9441 -19.2770 -19.9875 87.8857 -2.6602 13.4368 -29.5281 -0.1768 2.7084 -7.4679 0.8531 1.4945 29.7999 3.4442 2.5352 7.3655 2.4668 1.2024 -8.2166 -2.4427 10.9043 -14.8599 -11.2278 16.4617 7.0735 -1.5742 7.3000 5.3341 -0.0000 0.0000 0.0000 -56.1883 -37.3440 -4.6845 41.4994 -48.9335 -19.5623 -0.0000 -0.0000 13.2477 40.2287 37.9103 27.4635 -7.1250 0.0000 -0.0000 11.0237 75.3196 7.8914 -0.0000 0.0000 0.0000 76.9411 1.3054 -11.9004 -48.1616 52.2266 -24.7134 0.0000 0.0000 17.9650 -40.3637 -12.4815 10.4092 7.1250 -0.0000 -0.0000 -12.3958 -45.8034 0.2496
0.00 0.00 0.00 1.2219 1.2781 10.6907 0.0000 0.0000 0.0000 -2.7804 -15.9199 -75.6440 16.2362 19.6569 78.9347 -0.7002 -14.8414 2.8321 1.4412 -7.5895 -21.4740 0.0000 0.0000 0.0000 5.6884 2.9296 -39.7244 -21.4510 -19.9494 94.2458 -1.3423 23.0191 -24.6461 -0.1338 2.3574 -6.4946 1.5896 -0.5304 32.5029 3.3102 0.2286 7.2215 2.5614 0.0719 -8.7805 -2.8196 11.6383 -14.4795 -12.4631 17.5701 6.4620 -1.8035 7.8061 5.2240 0.0000 0.0000 0.0000 -54.6844 -37.1348 -8.3880 41.0434 -48.6760 -19.2192 -0.0000 -0.0000 12.9600 39.6317 36.2657 26.1006 -7.1250 0.0000 -0.0000 10.5069 73.3613 7.0790 0.0000 0.0000 0.0000 77.4191 1.2607 -12.9389 -44.9417 50.7399 -22.1936 0.0000 0.0000 15.8760 -40.1368 -11.4456 9.4986 7.1250 -0.0000 -0.0000 -12.0671 -44.4706 -0.1601
